<?xml version="1.0" encoding="iso-8859-1"?>
<!-- Uploaded to: SVG Repo, www.svgrepo.com, Generator: SVG Repo Mixer Tools -->
<svg version="1.1" id="Layer_1" xmlns="http://www.w3.org/2000/svg" xmlns:xlink="http://www.w3.org/1999/xlink" 
	 viewBox="0 0 512 512" xml:space="preserve">
<g>
	<rect x="133.1" y="175.875" style="fill:#BDCED4;" width="245.801" height="325.926"/>
	<path style="fill:#BDCED4;" d="M368.376,10.199c-20.373,0-39.48,5.422-55.957,14.901c-16.477-9.479-35.583-14.901-55.957-14.901
		c-20.566,0-39.837,5.529-56.419,15.174c-16.582-9.645-35.853-15.174-56.419-15.174c-62.063,0-112.376,50.313-112.376,112.376
		s50.313,112.376,112.376,112.376c20.566,0,39.837-5.529,56.419-15.174c16.582,9.645,35.854,15.174,56.419,15.174
		c20.373,0,39.48-5.422,55.957-14.901c16.477,9.479,35.583,14.901,55.957,14.901c62.063,0,112.376-50.313,112.376-112.376
		S430.439,10.199,368.376,10.199z"/>
</g>
<path d="M490.951,122.575C490.951,54.987,435.964,0,368.376,0c-19.502,0-38.726,4.651-55.957,13.493
	C295.189,4.651,275.964,0,256.463,0c-19.681,0-39.064,4.734-56.419,13.738C182.688,4.734,163.306,0,143.624,0
	C76.036,0,21.049,54.987,21.049,122.575c0,60.526,44.098,110.939,101.851,120.815v258.411c0,5.632,4.566,10.199,10.199,10.199H378.9
	c5.633,0,10.199-4.567,10.199-10.199V243.39C446.853,233.514,490.951,183.101,490.951,122.575z M368.701,491.602H340.89V474.64
	c0-5.632-4.566-10.199-10.199-10.199c-5.633,0-10.199,4.567-10.199,10.199v16.961h-28.897V474.64
	c0-5.632-4.566-10.199-10.199-10.199s-10.199,4.567-10.199,10.199v16.961h-30.392V474.64c0-5.632-4.566-10.199-10.199-10.199
	s-10.199,4.567-10.199,10.199v16.961h-28.897V474.64c0-5.632-4.566-10.199-10.199-10.199s-10.199,4.567-10.199,10.199v16.961
	h-27.811v-48.86H269.58c5.633,0,10.199-4.567,10.199-10.199c0-5.632-4.566-10.199-10.199-10.199H143.299V245.146
	c0.109,0,0.216,0.004,0.325,0.004c19.681,0,39.064-4.734,56.419-13.738c17.355,9.004,36.738,13.738,56.419,13.738
	c19.502,0,38.726-4.651,55.957-13.494c17.23,8.844,36.455,13.494,55.957,13.494c0.109,0,0.216-0.004,0.325-0.004L368.701,491.602
	L368.701,491.602z M368.376,224.752c-17.88,0-35.471-4.683-50.871-13.543c-1.575-0.906-3.33-1.359-5.086-1.359
	c-1.755,0-3.512,0.453-5.086,1.359c-15.401,8.86-32.991,13.543-50.871,13.543c-18.044,0-35.781-4.769-51.291-13.79
	c-3.17-1.845-7.086-1.845-10.257,0c-15.511,9.022-33.246,13.79-51.291,13.79c-56.34,0-102.177-45.836-102.177-102.178
	S87.284,20.398,143.624,20.398c18.044,0,35.781,4.769,51.291,13.79c3.17,1.845,7.086,1.845,10.257,0
	c15.51-9.021,33.246-13.79,51.291-13.79c17.879,0,35.47,4.682,50.871,13.541c3.148,1.81,7.023,1.81,10.172,0
	c15.401-8.859,32.991-13.541,50.871-13.541c56.34,0,102.177,45.835,102.177,102.177S424.716,224.752,368.376,224.752z"/>
<path d="M325.259,422.343h-12.222c-5.633,0-10.199,4.567-10.199,10.199c0,5.632,4.566,10.199,10.199,10.199h12.222
	c5.633,0,10.199-4.567,10.199-10.199C335.458,426.91,330.892,422.343,325.259,422.343z"/>
</svg>